%TF.GenerationSoftware,KiCad,Pcbnew,(6.0.7)*%
%TF.CreationDate,2022-10-31T09:28:38+01:00*%
%TF.ProjectId,Callsystem,43616c6c-7379-4737-9465-6d2e6b696361,1*%
%TF.SameCoordinates,Original*%
%TF.FileFunction,Soldermask,Bot*%
%TF.FilePolarity,Negative*%
%FSLAX46Y46*%
G04 Gerber Fmt 4.6, Leading zero omitted, Abs format (unit mm)*
G04 Created by KiCad (PCBNEW (6.0.7)) date 2022-10-31 09:28:38*
%MOMM*%
%LPD*%
G01*
G04 APERTURE LIST*
%ADD10O,2.000000X1.100000*%
%ADD11R,1.700000X1.700000*%
%ADD12O,1.700000X1.700000*%
%ADD13C,3.200000*%
%ADD14R,1.600000X1.600000*%
%ADD15O,1.600000X1.600000*%
%ADD16C,1.440000*%
%ADD17R,3.500000X3.500000*%
%ADD18C,3.500000*%
%ADD19R,2.000000X2.000000*%
%ADD20C,2.000000*%
%ADD21C,1.700000*%
G04 APERTURE END LIST*
D10*
X51930000Y-85660000D03*
X51930000Y-94300000D03*
X55730000Y-94300000D03*
X55730000Y-85660000D03*
D11*
X63251000Y-62865000D03*
D12*
X60711000Y-62865000D03*
D11*
X100076000Y-54478000D03*
D12*
X102616000Y-54478000D03*
D13*
X54000000Y-106000000D03*
D14*
X89950000Y-77620000D03*
D15*
X92490000Y-77620000D03*
X95030000Y-77620000D03*
X97570000Y-77620000D03*
X100110000Y-77620000D03*
X102650000Y-77620000D03*
X105190000Y-77620000D03*
X107730000Y-77620000D03*
X110270000Y-77620000D03*
X112810000Y-77620000D03*
X115350000Y-77620000D03*
X117890000Y-77620000D03*
X120430000Y-77620000D03*
X122970000Y-77620000D03*
X125510000Y-77620000D03*
X125510000Y-62380000D03*
X122970000Y-62380000D03*
X120430000Y-62380000D03*
X117890000Y-62380000D03*
X115350000Y-62380000D03*
X112810000Y-62380000D03*
X110270000Y-62380000D03*
X107730000Y-62380000D03*
X105190000Y-62380000D03*
X102650000Y-62380000D03*
X100110000Y-62380000D03*
X97570000Y-62380000D03*
X95030000Y-62380000D03*
X92490000Y-62380000D03*
X89950000Y-62380000D03*
D16*
X88646000Y-52832000D03*
X88646000Y-55372000D03*
X88646000Y-57912000D03*
D11*
X97404000Y-86868000D03*
D12*
X99944000Y-86868000D03*
D13*
X125755000Y-101000000D03*
X70145000Y-101000000D03*
D17*
X61500000Y-101000000D03*
D18*
X133500000Y-101000000D03*
D13*
X141000000Y-106000000D03*
D19*
X138430000Y-79385000D03*
D20*
X138430000Y-86985000D03*
D13*
X141000000Y-54000000D03*
X54000000Y-54000000D03*
D11*
X72190000Y-86526500D03*
D21*
X72190000Y-83986500D03*
X74730000Y-86526500D03*
X74730000Y-83986500D03*
X77270000Y-86526500D03*
X77270000Y-83986500D03*
X79810000Y-86526500D03*
X79810000Y-83986500D03*
D11*
X111516000Y-84836000D03*
D12*
X114056000Y-84836000D03*
X116596000Y-84836000D03*
X119136000Y-84836000D03*
D11*
X124460000Y-86619000D03*
D12*
X124460000Y-84079000D03*
D11*
X130175000Y-53975000D03*
D12*
X130175000Y-56515000D03*
D11*
X121920000Y-53970000D03*
D12*
X121920000Y-56510000D03*
D11*
X113665000Y-53975000D03*
D12*
X113665000Y-56515000D03*
M02*
