%TF.GenerationSoftware,KiCad,Pcbnew,(6.0.7)*%
%TF.CreationDate,2022-10-31T09:28:38+01:00*%
%TF.ProjectId,Callsystem,43616c6c-7379-4737-9465-6d2e6b696361,1*%
%TF.SameCoordinates,Original*%
%TF.FileFunction,Legend,Bot*%
%TF.FilePolarity,Positive*%
%FSLAX46Y46*%
G04 Gerber Fmt 4.6, Leading zero omitted, Abs format (unit mm)*
G04 Created by KiCad (PCBNEW (6.0.7)) date 2022-10-31 09:28:38*
%MOMM*%
%LPD*%
G01*
G04 APERTURE LIST*
%ADD10C,0.150000*%
%ADD11C,0.250000*%
%ADD12C,0.120000*%
%ADD13O,2.000000X1.100000*%
%ADD14R,1.700000X1.700000*%
%ADD15O,1.700000X1.700000*%
%ADD16C,3.200000*%
%ADD17R,1.600000X1.600000*%
%ADD18O,1.600000X1.600000*%
%ADD19C,1.440000*%
%ADD20R,3.500000X3.500000*%
%ADD21C,3.500000*%
%ADD22R,2.000000X2.000000*%
%ADD23C,2.000000*%
%ADD24C,1.700000*%
G04 APERTURE END LIST*
D10*
X124483809Y-57168571D02*
X124007619Y-57168571D01*
X125007619Y-57501904D02*
X124483809Y-57168571D01*
X125007619Y-56835238D01*
X124055238Y-56120952D02*
X124007619Y-56216190D01*
X124007619Y-56406666D01*
X124055238Y-56501904D01*
X124150476Y-56549523D01*
X124531428Y-56549523D01*
X124626666Y-56501904D01*
X124674285Y-56406666D01*
X124674285Y-56216190D01*
X124626666Y-56120952D01*
X124531428Y-56073333D01*
X124436190Y-56073333D01*
X124340952Y-56549523D01*
X124007619Y-55501904D02*
X124055238Y-55597142D01*
X124150476Y-55644761D01*
X125007619Y-55644761D01*
X124007619Y-54978095D02*
X124055238Y-55073333D01*
X124150476Y-55120952D01*
X125007619Y-55120952D01*
X124007619Y-54454285D02*
X124055238Y-54549523D01*
X124102857Y-54597142D01*
X124198095Y-54644761D01*
X124483809Y-54644761D01*
X124579047Y-54597142D01*
X124626666Y-54549523D01*
X124674285Y-54454285D01*
X124674285Y-54311428D01*
X124626666Y-54216190D01*
X124579047Y-54168571D01*
X124483809Y-54120952D01*
X124198095Y-54120952D01*
X124102857Y-54168571D01*
X124055238Y-54216190D01*
X124007619Y-54311428D01*
X124007619Y-54454285D01*
X124674285Y-53787619D02*
X124007619Y-53597142D01*
X124483809Y-53406666D01*
X124007619Y-53216190D01*
X124674285Y-53025714D01*
X131007142Y-59191666D02*
X130530952Y-59191666D01*
X131102380Y-59477380D02*
X130769047Y-58477380D01*
X130435714Y-59477380D01*
X130102380Y-59096428D02*
X129340476Y-59096428D01*
X129721428Y-59477380D02*
X129721428Y-58715476D01*
X114532142Y-59116666D02*
X114055952Y-59116666D01*
X114627380Y-59402380D02*
X114294047Y-58402380D01*
X113960714Y-59402380D01*
X113627380Y-59021428D02*
X112865476Y-59021428D01*
X113246428Y-59402380D02*
X113246428Y-58640476D01*
X116911428Y-55681428D02*
X116863809Y-55538571D01*
X116816190Y-55490952D01*
X116720952Y-55443333D01*
X116578095Y-55443333D01*
X116482857Y-55490952D01*
X116435238Y-55538571D01*
X116387619Y-55633809D01*
X116387619Y-56014761D01*
X117387619Y-56014761D01*
X117387619Y-55681428D01*
X117340000Y-55586190D01*
X117292380Y-55538571D01*
X117197142Y-55490952D01*
X117101904Y-55490952D01*
X117006666Y-55538571D01*
X116959047Y-55586190D01*
X116911428Y-55681428D01*
X116911428Y-56014761D01*
X116387619Y-54871904D02*
X116435238Y-54967142D01*
X116530476Y-55014761D01*
X117387619Y-55014761D01*
X117054285Y-54062380D02*
X116387619Y-54062380D01*
X117054285Y-54490952D02*
X116530476Y-54490952D01*
X116435238Y-54443333D01*
X116387619Y-54348095D01*
X116387619Y-54205238D01*
X116435238Y-54110000D01*
X116482857Y-54062380D01*
X116435238Y-53205238D02*
X116387619Y-53300476D01*
X116387619Y-53490952D01*
X116435238Y-53586190D01*
X116530476Y-53633809D01*
X116911428Y-53633809D01*
X117006666Y-53586190D01*
X117054285Y-53490952D01*
X117054285Y-53300476D01*
X117006666Y-53205238D01*
X116911428Y-53157619D01*
X116816190Y-53157619D01*
X116720952Y-53633809D01*
D11*
X111459414Y-91556371D02*
X111102271Y-93056371D01*
X110816557Y-91984942D01*
X110530842Y-93056371D01*
X110173700Y-91556371D01*
X109602271Y-93056371D02*
X109602271Y-92056371D01*
X109602271Y-91556371D02*
X109673700Y-91627800D01*
X109602271Y-91699228D01*
X109530842Y-91627800D01*
X109602271Y-91556371D01*
X109602271Y-91699228D01*
X108887985Y-93056371D02*
X108887985Y-92056371D01*
X108887985Y-92342085D02*
X108816557Y-92199228D01*
X108745128Y-92127800D01*
X108602271Y-92056371D01*
X108459414Y-92056371D01*
X107387985Y-92984942D02*
X107530842Y-93056371D01*
X107816557Y-93056371D01*
X107959414Y-92984942D01*
X108030842Y-92842085D01*
X108030842Y-92270657D01*
X107959414Y-92127800D01*
X107816557Y-92056371D01*
X107530842Y-92056371D01*
X107387985Y-92127800D01*
X107316557Y-92270657D01*
X107316557Y-92413514D01*
X108030842Y-92556371D01*
X106459414Y-93056371D02*
X106602271Y-92984942D01*
X106673700Y-92842085D01*
X106673700Y-91556371D01*
X105316557Y-92984942D02*
X105459414Y-93056371D01*
X105745128Y-93056371D01*
X105887985Y-92984942D01*
X105959414Y-92842085D01*
X105959414Y-92270657D01*
X105887985Y-92127800D01*
X105745128Y-92056371D01*
X105459414Y-92056371D01*
X105316557Y-92127800D01*
X105245128Y-92270657D01*
X105245128Y-92413514D01*
X105959414Y-92556371D01*
X104673700Y-92984942D02*
X104530842Y-93056371D01*
X104245128Y-93056371D01*
X104102271Y-92984942D01*
X104030842Y-92842085D01*
X104030842Y-92770657D01*
X104102271Y-92627800D01*
X104245128Y-92556371D01*
X104459414Y-92556371D01*
X104602271Y-92484942D01*
X104673700Y-92342085D01*
X104673700Y-92270657D01*
X104602271Y-92127800D01*
X104459414Y-92056371D01*
X104245128Y-92056371D01*
X104102271Y-92127800D01*
X103459414Y-92984942D02*
X103316557Y-93056371D01*
X103030842Y-93056371D01*
X102887985Y-92984942D01*
X102816557Y-92842085D01*
X102816557Y-92770657D01*
X102887985Y-92627800D01*
X103030842Y-92556371D01*
X103245128Y-92556371D01*
X103387985Y-92484942D01*
X103459414Y-92342085D01*
X103459414Y-92270657D01*
X103387985Y-92127800D01*
X103245128Y-92056371D01*
X103030842Y-92056371D01*
X102887985Y-92127800D01*
X100173700Y-92913514D02*
X100245128Y-92984942D01*
X100459414Y-93056371D01*
X100602271Y-93056371D01*
X100816557Y-92984942D01*
X100959414Y-92842085D01*
X101030842Y-92699228D01*
X101102271Y-92413514D01*
X101102271Y-92199228D01*
X101030842Y-91913514D01*
X100959414Y-91770657D01*
X100816557Y-91627800D01*
X100602271Y-91556371D01*
X100459414Y-91556371D01*
X100245128Y-91627800D01*
X100173700Y-91699228D01*
X98887985Y-93056371D02*
X98887985Y-92270657D01*
X98959414Y-92127800D01*
X99102271Y-92056371D01*
X99387985Y-92056371D01*
X99530842Y-92127800D01*
X98887985Y-92984942D02*
X99030842Y-93056371D01*
X99387985Y-93056371D01*
X99530842Y-92984942D01*
X99602271Y-92842085D01*
X99602271Y-92699228D01*
X99530842Y-92556371D01*
X99387985Y-92484942D01*
X99030842Y-92484942D01*
X98887985Y-92413514D01*
X97959414Y-93056371D02*
X98102271Y-92984942D01*
X98173700Y-92842085D01*
X98173700Y-91556371D01*
X97173700Y-93056371D02*
X97316557Y-92984942D01*
X97387985Y-92842085D01*
X97387985Y-91556371D01*
X95530842Y-92984942D02*
X95316557Y-93056371D01*
X94959414Y-93056371D01*
X94816557Y-92984942D01*
X94745128Y-92913514D01*
X94673700Y-92770657D01*
X94673700Y-92627800D01*
X94745128Y-92484942D01*
X94816557Y-92413514D01*
X94959414Y-92342085D01*
X95245128Y-92270657D01*
X95387985Y-92199228D01*
X95459414Y-92127800D01*
X95530842Y-91984942D01*
X95530842Y-91842085D01*
X95459414Y-91699228D01*
X95387985Y-91627800D01*
X95245128Y-91556371D01*
X94887985Y-91556371D01*
X94673700Y-91627800D01*
X94173700Y-92056371D02*
X93816557Y-93056371D01*
X93459414Y-92056371D02*
X93816557Y-93056371D01*
X93959414Y-93413514D01*
X94030842Y-93484942D01*
X94173700Y-93556371D01*
X92959414Y-92984942D02*
X92816557Y-93056371D01*
X92530842Y-93056371D01*
X92387985Y-92984942D01*
X92316557Y-92842085D01*
X92316557Y-92770657D01*
X92387985Y-92627800D01*
X92530842Y-92556371D01*
X92745128Y-92556371D01*
X92887985Y-92484942D01*
X92959414Y-92342085D01*
X92959414Y-92270657D01*
X92887985Y-92127800D01*
X92745128Y-92056371D01*
X92530842Y-92056371D01*
X92387985Y-92127800D01*
X91887985Y-92056371D02*
X91316557Y-92056371D01*
X91673700Y-91556371D02*
X91673700Y-92842085D01*
X91602271Y-92984942D01*
X91459414Y-93056371D01*
X91316557Y-93056371D01*
X90245128Y-92984942D02*
X90387985Y-93056371D01*
X90673700Y-93056371D01*
X90816557Y-92984942D01*
X90887985Y-92842085D01*
X90887985Y-92270657D01*
X90816557Y-92127800D01*
X90673700Y-92056371D01*
X90387985Y-92056371D01*
X90245128Y-92127800D01*
X90173700Y-92270657D01*
X90173700Y-92413514D01*
X90887985Y-92556371D01*
X89530842Y-93056371D02*
X89530842Y-92056371D01*
X89530842Y-92199228D02*
X89459414Y-92127800D01*
X89316557Y-92056371D01*
X89102271Y-92056371D01*
X88959414Y-92127800D01*
X88887985Y-92270657D01*
X88887985Y-93056371D01*
X88887985Y-92270657D02*
X88816557Y-92127800D01*
X88673700Y-92056371D01*
X88459414Y-92056371D01*
X88316557Y-92127800D01*
X88245128Y-92270657D01*
X88245128Y-93056371D01*
X86602271Y-91556371D02*
X86102271Y-93056371D01*
X85602271Y-91556371D01*
X84316557Y-93056371D02*
X85173700Y-93056371D01*
X84745128Y-93056371D02*
X84745128Y-91556371D01*
X84887985Y-91770657D01*
X85030842Y-91913514D01*
X85173700Y-91984942D01*
X83673700Y-92913514D02*
X83602271Y-92984942D01*
X83673700Y-93056371D01*
X83745128Y-92984942D01*
X83673700Y-92913514D01*
X83673700Y-93056371D01*
X82173700Y-93056371D02*
X83030842Y-93056371D01*
X82602271Y-93056371D02*
X82602271Y-91556371D01*
X82745128Y-91770657D01*
X82887985Y-91913514D01*
X83030842Y-91984942D01*
X111387985Y-94114228D02*
X111316557Y-94042800D01*
X111173700Y-93971371D01*
X110816557Y-93971371D01*
X110673700Y-94042800D01*
X110602271Y-94114228D01*
X110530842Y-94257085D01*
X110530842Y-94399942D01*
X110602271Y-94614228D01*
X111459414Y-95471371D01*
X110530842Y-95471371D01*
X109602271Y-93971371D02*
X109459414Y-93971371D01*
X109316557Y-94042800D01*
X109245128Y-94114228D01*
X109173700Y-94257085D01*
X109102271Y-94542800D01*
X109102271Y-94899942D01*
X109173700Y-95185657D01*
X109245128Y-95328514D01*
X109316557Y-95399942D01*
X109459414Y-95471371D01*
X109602271Y-95471371D01*
X109745128Y-95399942D01*
X109816557Y-95328514D01*
X109887985Y-95185657D01*
X109959414Y-94899942D01*
X109959414Y-94542800D01*
X109887985Y-94257085D01*
X109816557Y-94114228D01*
X109745128Y-94042800D01*
X109602271Y-93971371D01*
X108530842Y-94114228D02*
X108459414Y-94042800D01*
X108316557Y-93971371D01*
X107959414Y-93971371D01*
X107816557Y-94042800D01*
X107745128Y-94114228D01*
X107673700Y-94257085D01*
X107673700Y-94399942D01*
X107745128Y-94614228D01*
X108602271Y-95471371D01*
X107673700Y-95471371D01*
X107102271Y-94114228D02*
X107030842Y-94042800D01*
X106887985Y-93971371D01*
X106530842Y-93971371D01*
X106387985Y-94042800D01*
X106316557Y-94114228D01*
X106245128Y-94257085D01*
X106245128Y-94399942D01*
X106316557Y-94614228D01*
X107173700Y-95471371D01*
X106245128Y-95471371D01*
X104459414Y-95471371D02*
X104459414Y-93971371D01*
X104459414Y-94542800D02*
X104316557Y-94471371D01*
X104030842Y-94471371D01*
X103887985Y-94542800D01*
X103816557Y-94614228D01*
X103745128Y-94757085D01*
X103745128Y-95185657D01*
X103816557Y-95328514D01*
X103887985Y-95399942D01*
X104030842Y-95471371D01*
X104316557Y-95471371D01*
X104459414Y-95399942D01*
X103245128Y-94471371D02*
X102887985Y-95471371D01*
X102530842Y-94471371D02*
X102887985Y-95471371D01*
X103030842Y-95828514D01*
X103102271Y-95899942D01*
X103245128Y-95971371D01*
X111530842Y-96386371D02*
X110673700Y-96386371D01*
X111102271Y-97886371D02*
X111102271Y-96386371D01*
X110173700Y-97886371D02*
X110173700Y-96386371D01*
X109530842Y-97886371D02*
X109530842Y-97100657D01*
X109602271Y-96957800D01*
X109745128Y-96886371D01*
X109959414Y-96886371D01*
X110102271Y-96957800D01*
X110173700Y-97029228D01*
X108602271Y-97886371D02*
X108745128Y-97814942D01*
X108816557Y-97743514D01*
X108887985Y-97600657D01*
X108887985Y-97172085D01*
X108816557Y-97029228D01*
X108745128Y-96957800D01*
X108602271Y-96886371D01*
X108387985Y-96886371D01*
X108245128Y-96957800D01*
X108173700Y-97029228D01*
X108102271Y-97172085D01*
X108102271Y-97600657D01*
X108173700Y-97743514D01*
X108245128Y-97814942D01*
X108387985Y-97886371D01*
X108602271Y-97886371D01*
X107459414Y-97886371D02*
X107459414Y-96886371D01*
X107459414Y-97029228D02*
X107387985Y-96957800D01*
X107245128Y-96886371D01*
X107030842Y-96886371D01*
X106887985Y-96957800D01*
X106816557Y-97100657D01*
X106816557Y-97886371D01*
X106816557Y-97100657D02*
X106745128Y-96957800D01*
X106602271Y-96886371D01*
X106387985Y-96886371D01*
X106245128Y-96957800D01*
X106173700Y-97100657D01*
X106173700Y-97886371D01*
X104816557Y-97886371D02*
X104816557Y-97100657D01*
X104887985Y-96957800D01*
X105030842Y-96886371D01*
X105316557Y-96886371D01*
X105459414Y-96957800D01*
X104816557Y-97814942D02*
X104959414Y-97886371D01*
X105316557Y-97886371D01*
X105459414Y-97814942D01*
X105530842Y-97672085D01*
X105530842Y-97529228D01*
X105459414Y-97386371D01*
X105316557Y-97314942D01*
X104959414Y-97314942D01*
X104816557Y-97243514D01*
X104173700Y-97814942D02*
X104030842Y-97886371D01*
X103745128Y-97886371D01*
X103602271Y-97814942D01*
X103530842Y-97672085D01*
X103530842Y-97600657D01*
X103602271Y-97457800D01*
X103745128Y-97386371D01*
X103959414Y-97386371D01*
X104102271Y-97314942D01*
X104173700Y-97172085D01*
X104173700Y-97100657D01*
X104102271Y-96957800D01*
X103959414Y-96886371D01*
X103745128Y-96886371D01*
X103602271Y-96957800D01*
X101030842Y-97886371D02*
X101745128Y-97886371D01*
X101745128Y-96386371D01*
X99887985Y-97886371D02*
X99887985Y-97100657D01*
X99959414Y-96957800D01*
X100102271Y-96886371D01*
X100387985Y-96886371D01*
X100530842Y-96957800D01*
X99887985Y-97814942D02*
X100030842Y-97886371D01*
X100387985Y-97886371D01*
X100530842Y-97814942D01*
X100602271Y-97672085D01*
X100602271Y-97529228D01*
X100530842Y-97386371D01*
X100387985Y-97314942D01*
X100030842Y-97314942D01*
X99887985Y-97243514D01*
X99173700Y-96886371D02*
X99173700Y-97886371D01*
X99173700Y-97029228D02*
X99102271Y-96957800D01*
X98959414Y-96886371D01*
X98745128Y-96886371D01*
X98602271Y-96957800D01*
X98530842Y-97100657D01*
X98530842Y-97886371D01*
X97173700Y-97886371D02*
X97173700Y-96386371D01*
X97173700Y-97814942D02*
X97316557Y-97886371D01*
X97602271Y-97886371D01*
X97745128Y-97814942D01*
X97816557Y-97743514D01*
X97887985Y-97600657D01*
X97887985Y-97172085D01*
X97816557Y-97029228D01*
X97745128Y-96957800D01*
X97602271Y-96886371D01*
X97316557Y-96886371D01*
X97173700Y-96957800D01*
X95816557Y-97886371D02*
X95816557Y-97100657D01*
X95887985Y-96957800D01*
X96030842Y-96886371D01*
X96316557Y-96886371D01*
X96459414Y-96957800D01*
X95816557Y-97814942D02*
X95959414Y-97886371D01*
X96316557Y-97886371D01*
X96459414Y-97814942D01*
X96530842Y-97672085D01*
X96530842Y-97529228D01*
X96459414Y-97386371D01*
X96316557Y-97314942D01*
X95959414Y-97314942D01*
X95816557Y-97243514D01*
X94459414Y-96886371D02*
X94459414Y-97886371D01*
X95102271Y-96886371D02*
X95102271Y-97672085D01*
X95030842Y-97814942D01*
X94887985Y-97886371D01*
X94673700Y-97886371D01*
X94530842Y-97814942D01*
X94459414Y-97743514D01*
X93173700Y-97814942D02*
X93316557Y-97886371D01*
X93602271Y-97886371D01*
X93745128Y-97814942D01*
X93816557Y-97672085D01*
X93816557Y-97100657D01*
X93745128Y-96957800D01*
X93602271Y-96886371D01*
X93316557Y-96886371D01*
X93173700Y-96957800D01*
X93102271Y-97100657D01*
X93102271Y-97243514D01*
X93816557Y-97386371D01*
X92459414Y-97886371D02*
X92459414Y-96886371D01*
X92459414Y-97172085D02*
X92387985Y-97029228D01*
X92316557Y-96957800D01*
X92173700Y-96886371D01*
X92030842Y-96886371D01*
D10*
X122757142Y-59191666D02*
X122280952Y-59191666D01*
X122852380Y-59477380D02*
X122519047Y-58477380D01*
X122185714Y-59477380D01*
X121852380Y-59096428D02*
X121090476Y-59096428D01*
X121471428Y-59477380D02*
X121471428Y-58715476D01*
D11*
X140045142Y-98761357D02*
X139830857Y-98832785D01*
X139759428Y-98904214D01*
X139688000Y-99047071D01*
X139688000Y-99261357D01*
X139759428Y-99404214D01*
X139830857Y-99475642D01*
X139973714Y-99547071D01*
X140545142Y-99547071D01*
X140545142Y-98047071D01*
X140045142Y-98047071D01*
X139902285Y-98118500D01*
X139830857Y-98189928D01*
X139759428Y-98332785D01*
X139759428Y-98475642D01*
X139830857Y-98618500D01*
X139902285Y-98689928D01*
X140045142Y-98761357D01*
X140545142Y-98761357D01*
X139116571Y-99118500D02*
X138402285Y-99118500D01*
X139259428Y-99547071D02*
X138759428Y-98047071D01*
X138259428Y-99547071D01*
X137973714Y-98047071D02*
X137116571Y-98047071D01*
X137545142Y-99547071D02*
X137545142Y-98047071D01*
X138938000Y-101390642D02*
X137795142Y-101390642D01*
D10*
X125282142Y-81666666D02*
X124805952Y-81666666D01*
X125377380Y-81952380D02*
X125044047Y-80952380D01*
X124710714Y-81952380D01*
X124377380Y-81571428D02*
X123615476Y-81571428D01*
X123996428Y-81952380D02*
X123996428Y-81190476D01*
D11*
X57241142Y-98761357D02*
X57026857Y-98832785D01*
X56955428Y-98904214D01*
X56884000Y-99047071D01*
X56884000Y-99261357D01*
X56955428Y-99404214D01*
X57026857Y-99475642D01*
X57169714Y-99547071D01*
X57741142Y-99547071D01*
X57741142Y-98047071D01*
X57241142Y-98047071D01*
X57098285Y-98118500D01*
X57026857Y-98189928D01*
X56955428Y-98332785D01*
X56955428Y-98475642D01*
X57026857Y-98618500D01*
X57098285Y-98689928D01*
X57241142Y-98761357D01*
X57741142Y-98761357D01*
X56312571Y-99118500D02*
X55598285Y-99118500D01*
X56455428Y-99547071D02*
X55955428Y-98047071D01*
X55455428Y-99547071D01*
X55169714Y-98047071D02*
X54312571Y-98047071D01*
X54741142Y-99547071D02*
X54741142Y-98047071D01*
X56134000Y-101390642D02*
X54991142Y-101390642D01*
X55562571Y-101962071D02*
X55562571Y-100819214D01*
D10*
X132542019Y-55816428D02*
X133018209Y-56149761D01*
X132542019Y-56387857D02*
X133542019Y-56387857D01*
X133542019Y-56006904D01*
X133494400Y-55911666D01*
X133446780Y-55864047D01*
X133351542Y-55816428D01*
X133208685Y-55816428D01*
X133113447Y-55864047D01*
X133065828Y-55911666D01*
X133018209Y-56006904D01*
X133018209Y-56387857D01*
X132589638Y-55006904D02*
X132542019Y-55102142D01*
X132542019Y-55292619D01*
X132589638Y-55387857D01*
X132684876Y-55435476D01*
X133065828Y-55435476D01*
X133161066Y-55387857D01*
X133208685Y-55292619D01*
X133208685Y-55102142D01*
X133161066Y-55006904D01*
X133065828Y-54959285D01*
X132970590Y-54959285D01*
X132875352Y-55435476D01*
X132542019Y-54102142D02*
X133542019Y-54102142D01*
X132589638Y-54102142D02*
X132542019Y-54197380D01*
X132542019Y-54387857D01*
X132589638Y-54483095D01*
X132637257Y-54530714D01*
X132732495Y-54578333D01*
X133018209Y-54578333D01*
X133113447Y-54530714D01*
X133161066Y-54483095D01*
X133208685Y-54387857D01*
X133208685Y-54197380D01*
X133161066Y-54102142D01*
X127500000Y-86447142D02*
X127547619Y-86542380D01*
X127547619Y-86685238D01*
X127500000Y-86828095D01*
X127404761Y-86923333D01*
X127309523Y-86970952D01*
X127119047Y-87018571D01*
X126976190Y-87018571D01*
X126785714Y-86970952D01*
X126690476Y-86923333D01*
X126595238Y-86828095D01*
X126547619Y-86685238D01*
X126547619Y-86590000D01*
X126595238Y-86447142D01*
X126642857Y-86399523D01*
X126976190Y-86399523D01*
X126976190Y-86590000D01*
X126547619Y-85970952D02*
X127214285Y-85970952D01*
X127023809Y-85970952D02*
X127119047Y-85923333D01*
X127166666Y-85875714D01*
X127214285Y-85780476D01*
X127214285Y-85685238D01*
X126595238Y-84970952D02*
X126547619Y-85066190D01*
X126547619Y-85256666D01*
X126595238Y-85351904D01*
X126690476Y-85399523D01*
X127071428Y-85399523D01*
X127166666Y-85351904D01*
X127214285Y-85256666D01*
X127214285Y-85066190D01*
X127166666Y-84970952D01*
X127071428Y-84923333D01*
X126976190Y-84923333D01*
X126880952Y-85399523D01*
X126595238Y-84113809D02*
X126547619Y-84209047D01*
X126547619Y-84399523D01*
X126595238Y-84494761D01*
X126690476Y-84542380D01*
X127071428Y-84542380D01*
X127166666Y-84494761D01*
X127214285Y-84399523D01*
X127214285Y-84209047D01*
X127166666Y-84113809D01*
X127071428Y-84066190D01*
X126976190Y-84066190D01*
X126880952Y-84542380D01*
X127214285Y-83637619D02*
X126547619Y-83637619D01*
X127119047Y-83637619D02*
X127166666Y-83590000D01*
X127214285Y-83494761D01*
X127214285Y-83351904D01*
X127166666Y-83256666D01*
X127071428Y-83209047D01*
X126547619Y-83209047D01*
X125198095Y-89401380D02*
X125198095Y-88401380D01*
X124960000Y-88401380D01*
X124817142Y-88449000D01*
X124721904Y-88544238D01*
X124674285Y-88639476D01*
X124626666Y-88829952D01*
X124626666Y-88972809D01*
X124674285Y-89163285D01*
X124721904Y-89258523D01*
X124817142Y-89353761D01*
X124960000Y-89401380D01*
X125198095Y-89401380D01*
X123769523Y-88734714D02*
X123769523Y-89401380D01*
X124007619Y-88353761D02*
X124245714Y-89068047D01*
X123626666Y-89068047D01*
X130913095Y-52097380D02*
X130913095Y-51097380D01*
X130675000Y-51097380D01*
X130532142Y-51145000D01*
X130436904Y-51240238D01*
X130389285Y-51335476D01*
X130341666Y-51525952D01*
X130341666Y-51668809D01*
X130389285Y-51859285D01*
X130436904Y-51954523D01*
X130532142Y-52049761D01*
X130675000Y-52097380D01*
X130913095Y-52097380D01*
X129389285Y-52097380D02*
X129960714Y-52097380D01*
X129675000Y-52097380D02*
X129675000Y-51097380D01*
X129770238Y-51240238D01*
X129865476Y-51335476D01*
X129960714Y-51383095D01*
X122658095Y-52092380D02*
X122658095Y-51092380D01*
X122420000Y-51092380D01*
X122277142Y-51140000D01*
X122181904Y-51235238D01*
X122134285Y-51330476D01*
X122086666Y-51520952D01*
X122086666Y-51663809D01*
X122134285Y-51854285D01*
X122181904Y-51949523D01*
X122277142Y-52044761D01*
X122420000Y-52092380D01*
X122658095Y-52092380D01*
X121705714Y-51187619D02*
X121658095Y-51140000D01*
X121562857Y-51092380D01*
X121324761Y-51092380D01*
X121229523Y-51140000D01*
X121181904Y-51187619D01*
X121134285Y-51282857D01*
X121134285Y-51378095D01*
X121181904Y-51520952D01*
X121753333Y-52092380D01*
X121134285Y-52092380D01*
X114403095Y-52097380D02*
X114403095Y-51097380D01*
X114165000Y-51097380D01*
X114022142Y-51145000D01*
X113926904Y-51240238D01*
X113879285Y-51335476D01*
X113831666Y-51525952D01*
X113831666Y-51668809D01*
X113879285Y-51859285D01*
X113926904Y-51954523D01*
X114022142Y-52049761D01*
X114165000Y-52097380D01*
X114403095Y-52097380D01*
X113498333Y-51097380D02*
X112879285Y-51097380D01*
X113212619Y-51478333D01*
X113069761Y-51478333D01*
X112974523Y-51525952D01*
X112926904Y-51573571D01*
X112879285Y-51668809D01*
X112879285Y-51906904D01*
X112926904Y-52002142D01*
X112974523Y-52049761D01*
X113069761Y-52097380D01*
X113355476Y-52097380D01*
X113450714Y-52049761D01*
X113498333Y-52002142D01*
D12*
X123130000Y-87949000D02*
X124460000Y-87949000D01*
X123130000Y-86619000D02*
X123130000Y-87949000D01*
X125790000Y-85349000D02*
X125790000Y-82749000D01*
X123130000Y-82749000D02*
X125790000Y-82749000D01*
X123130000Y-85349000D02*
X125790000Y-85349000D01*
X123130000Y-85349000D02*
X123130000Y-82749000D01*
X131505000Y-52645000D02*
X130175000Y-52645000D01*
X131505000Y-55245000D02*
X131505000Y-57845000D01*
X131505000Y-53975000D02*
X131505000Y-52645000D01*
X131505000Y-55245000D02*
X128845000Y-55245000D01*
X131505000Y-57845000D02*
X128845000Y-57845000D01*
X128845000Y-55245000D02*
X128845000Y-57845000D01*
X123250000Y-52640000D02*
X121920000Y-52640000D01*
X123250000Y-53970000D02*
X123250000Y-52640000D01*
X123250000Y-55240000D02*
X123250000Y-57840000D01*
X120590000Y-55240000D02*
X120590000Y-57840000D01*
X123250000Y-57840000D02*
X120590000Y-57840000D01*
X123250000Y-55240000D02*
X120590000Y-55240000D01*
X114995000Y-57845000D02*
X112335000Y-57845000D01*
X114995000Y-52645000D02*
X113665000Y-52645000D01*
X114995000Y-55245000D02*
X112335000Y-55245000D01*
X114995000Y-55245000D02*
X114995000Y-57845000D01*
X112335000Y-55245000D02*
X112335000Y-57845000D01*
X114995000Y-53975000D02*
X114995000Y-52645000D01*
%LPC*%
D13*
X51930000Y-85660000D03*
X51930000Y-94300000D03*
X55730000Y-94300000D03*
X55730000Y-85660000D03*
D14*
X63251000Y-62865000D03*
D15*
X60711000Y-62865000D03*
D14*
X100076000Y-54478000D03*
D15*
X102616000Y-54478000D03*
D16*
X54000000Y-106000000D03*
D17*
X89950000Y-77620000D03*
D18*
X92490000Y-77620000D03*
X95030000Y-77620000D03*
X97570000Y-77620000D03*
X100110000Y-77620000D03*
X102650000Y-77620000D03*
X105190000Y-77620000D03*
X107730000Y-77620000D03*
X110270000Y-77620000D03*
X112810000Y-77620000D03*
X115350000Y-77620000D03*
X117890000Y-77620000D03*
X120430000Y-77620000D03*
X122970000Y-77620000D03*
X125510000Y-77620000D03*
X125510000Y-62380000D03*
X122970000Y-62380000D03*
X120430000Y-62380000D03*
X117890000Y-62380000D03*
X115350000Y-62380000D03*
X112810000Y-62380000D03*
X110270000Y-62380000D03*
X107730000Y-62380000D03*
X105190000Y-62380000D03*
X102650000Y-62380000D03*
X100110000Y-62380000D03*
X97570000Y-62380000D03*
X95030000Y-62380000D03*
X92490000Y-62380000D03*
X89950000Y-62380000D03*
D19*
X88646000Y-52832000D03*
X88646000Y-55372000D03*
X88646000Y-57912000D03*
D14*
X97404000Y-86868000D03*
D15*
X99944000Y-86868000D03*
D16*
X125755000Y-101000000D03*
X70145000Y-101000000D03*
D20*
X61500000Y-101000000D03*
D21*
X133500000Y-101000000D03*
D16*
X141000000Y-106000000D03*
D22*
X138430000Y-79385000D03*
D23*
X138430000Y-86985000D03*
D16*
X141000000Y-54000000D03*
X54000000Y-54000000D03*
D14*
X72190000Y-86526500D03*
D24*
X72190000Y-83986500D03*
X74730000Y-86526500D03*
X74730000Y-83986500D03*
X77270000Y-86526500D03*
X77270000Y-83986500D03*
X79810000Y-86526500D03*
X79810000Y-83986500D03*
D14*
X111516000Y-84836000D03*
D15*
X114056000Y-84836000D03*
X116596000Y-84836000D03*
X119136000Y-84836000D03*
D14*
X124460000Y-86619000D03*
D15*
X124460000Y-84079000D03*
D14*
X130175000Y-53975000D03*
D15*
X130175000Y-56515000D03*
D14*
X121920000Y-53970000D03*
D15*
X121920000Y-56510000D03*
D14*
X113665000Y-53975000D03*
D15*
X113665000Y-56515000D03*
M02*
