M48
; DRILL file {KiCad (6.0.7)} date Mon Oct 31 09:28:41 2022
; FORMAT={-:-/ absolute / metric / decimal}
; #@! TF.CreationDate,2022-10-31T09:28:41+01:00
; #@! TF.GenerationSoftware,Kicad,Pcbnew,(6.0.7)
; #@! TF.FileFunction,Plated,1,2,PTH
FMAT,2
METRIC
; #@! TA.AperFunction,Plated,PTH,ViaDrill
T1C0.400
; #@! TA.AperFunction,Plated,PTH,ComponentDrill
T2C0.600
; #@! TA.AperFunction,Plated,PTH,ComponentDrill
T3C0.800
; #@! TA.AperFunction,Plated,PTH,ComponentDrill
T4C1.000
; #@! TA.AperFunction,Plated,PTH,ComponentDrill
T5C2.000
%
G90
G05
T1
X51.0Y-58.0
X51.0Y-61.0
X51.0Y-64.0
X51.0Y-67.0
X51.0Y-70.0
X51.0Y-73.0
X51.0Y-76.0
X51.0Y-79.0
X51.0Y-82.0
X51.0Y-97.0
X51.0Y-99.0
X51.0Y-102.0
X52.578Y-58.928
X52.832Y-70.612
X53.4Y-90.0
X55.88Y-70.612
X56.134Y-81.788
X56.642Y-58.166
X58.0Y-51.0
X58.0Y-109.0
X58.064Y-90.5
X59.233Y-89.51
X61.0Y-51.0
X61.0Y-109.0
X61.316Y-71.831
X61.341Y-80.645
X62.586Y-70.968
X63.754Y-55.88
X64.0Y-51.0
X64.0Y-109.0
X67.0Y-51.0
X67.0Y-109.0
X67.818Y-63.5
X67.818Y-65.278
X68.072Y-74.676
X68.072Y-77.724
X70.0Y-51.0
X70.0Y-109.0
X70.612Y-64.262
X73.0Y-51.0
X73.0Y-109.0
X75.946Y-67.818
X76.0Y-51.0
X76.0Y-109.0
X78.74Y-68.58
X79.0Y-51.0
X79.0Y-109.0
X79.502Y-93.726
X82.0Y-51.0
X82.0Y-90.0
X82.0Y-109.0
X82.55Y-60.706
X85.0Y-51.0
X85.0Y-109.0
X85.09Y-67.564
X87.0Y-81.0
X87.122Y-67.056
X88.0Y-51.0
X88.0Y-109.0
X91.0Y-51.0
X91.0Y-109.0
X93.218Y-69.342
X94.0Y-51.0
X94.0Y-109.0
X97.0Y-51.0
X97.0Y-109.0
X97.536Y-70.612
X98.806Y-64.77
X99.822Y-70.866
X100.0Y-51.0
X100.0Y-109.0
X101.346Y-94.234
X103.0Y-51.0
X103.0Y-109.0
X104.394Y-84.836
X106.0Y-51.0
X106.0Y-109.0
X107.442Y-84.836
X108.966Y-80.772
X109.0Y-51.0
X109.0Y-109.0
X110.236Y-74.676
X111.506Y-80.772
X112.0Y-51.0
X112.0Y-109.0
X114.554Y-80.264
X115.0Y-51.0
X115.0Y-109.0
X118.0Y-51.0
X118.0Y-109.0
X119.634Y-67.31
X121.0Y-51.0
X121.0Y-109.0
X121.412Y-65.024
X121.412Y-70.866
X124.0Y-51.0
X124.0Y-109.0
X124.206Y-64.77
X124.206Y-69.342
X124.206Y-70.866
X127.0Y-51.0
X127.0Y-109.0
X128.016Y-93.98
X130.0Y-51.0
X130.0Y-109.0
X131.826Y-67.056
X133.0Y-51.0
X133.0Y-109.0
X136.0Y-51.0
X136.0Y-109.0
X144.0Y-60.0
X144.0Y-63.0
X144.0Y-66.0
X144.0Y-69.0
X144.0Y-72.0
X144.0Y-75.0
X144.0Y-78.0
X144.0Y-81.0
X144.0Y-84.0
X144.0Y-87.0
X144.0Y-90.0
X144.0Y-93.0
X144.0Y-96.0
X144.0Y-99.0
X144.0Y-102.0
T3
X88.646Y-52.832
X88.646Y-55.372
X88.646Y-57.912
X89.95Y-62.38
X89.95Y-77.62
X92.49Y-62.38
X92.49Y-77.62
X95.03Y-62.38
X95.03Y-77.62
X97.57Y-62.38
X97.57Y-77.62
X100.11Y-62.38
X100.11Y-77.62
X102.65Y-62.38
X102.65Y-77.62
X105.19Y-62.38
X105.19Y-77.62
X107.73Y-62.38
X107.73Y-77.62
X110.27Y-62.38
X110.27Y-77.62
X112.81Y-62.38
X112.81Y-77.62
X115.35Y-62.38
X115.35Y-77.62
X117.89Y-62.38
X117.89Y-77.62
X120.43Y-62.38
X120.43Y-77.62
X122.97Y-62.38
X122.97Y-77.62
X125.51Y-62.38
X125.51Y-77.62
T4
X60.711Y-62.865
X63.251Y-62.865
X72.19Y-83.986
X72.19Y-86.526
X74.73Y-83.986
X74.73Y-86.526
X77.27Y-83.986
X77.27Y-86.526
X79.81Y-83.986
X79.81Y-86.526
X97.404Y-86.868
X99.944Y-86.868
X100.076Y-54.478
X102.616Y-54.478
X111.516Y-84.836
X113.665Y-53.975
X113.665Y-56.515
X114.056Y-84.836
X116.596Y-84.836
X119.136Y-84.836
X121.92Y-53.97
X121.92Y-56.51
X124.46Y-84.079
X124.46Y-86.619
X130.175Y-53.975
X130.175Y-56.515
X138.43Y-79.385
X138.43Y-86.985
T5
X61.5Y-101.0
X133.5Y-101.0
T2
X52.38Y-85.66G85X51.48Y-85.66
G05
X52.38Y-94.3G85X51.48Y-94.3
G05
X56.18Y-85.66G85X55.28Y-85.66
G05
X56.18Y-94.3G85X55.28Y-94.3
G05
T0
M30
