%TF.GenerationSoftware,KiCad,Pcbnew,(6.0.7)*%
%TF.CreationDate,2022-10-31T09:28:38+01:00*%
%TF.ProjectId,Callsystem,43616c6c-7379-4737-9465-6d2e6b696361,1*%
%TF.SameCoordinates,Original*%
%TF.FileFunction,Paste,Top*%
%TF.FilePolarity,Positive*%
%FSLAX46Y46*%
G04 Gerber Fmt 4.6, Leading zero omitted, Abs format (unit mm)*
G04 Created by KiCad (PCBNEW (6.0.7)) date 2022-10-31 09:28:38*
%MOMM*%
%LPD*%
G01*
G04 APERTURE LIST*
G04 Aperture macros list*
%AMRoundRect*
0 Rectangle with rounded corners*
0 $1 Rounding radius*
0 $2 $3 $4 $5 $6 $7 $8 $9 X,Y pos of 4 corners*
0 Add a 4 corners polygon primitive as box body*
4,1,4,$2,$3,$4,$5,$6,$7,$8,$9,$2,$3,0*
0 Add four circle primitives for the rounded corners*
1,1,$1+$1,$2,$3*
1,1,$1+$1,$4,$5*
1,1,$1+$1,$6,$7*
1,1,$1+$1,$8,$9*
0 Add four rect primitives between the rounded corners*
20,1,$1+$1,$2,$3,$4,$5,0*
20,1,$1+$1,$4,$5,$6,$7,0*
20,1,$1+$1,$6,$7,$8,$9,0*
20,1,$1+$1,$8,$9,$2,$3,0*%
G04 Aperture macros list end*
%ADD10C,0.010000*%
%ADD11R,2.000000X0.700000*%
%ADD12R,2.000000X0.760000*%
%ADD13R,2.000000X0.800000*%
%ADD14RoundRect,0.250000X0.475000X-0.250000X0.475000X0.250000X-0.475000X0.250000X-0.475000X-0.250000X0*%
%ADD15RoundRect,0.250000X-0.262500X-0.450000X0.262500X-0.450000X0.262500X0.450000X-0.262500X0.450000X0*%
%ADD16RoundRect,0.150000X0.512500X0.150000X-0.512500X0.150000X-0.512500X-0.150000X0.512500X-0.150000X0*%
%ADD17RoundRect,0.250000X0.262500X0.450000X-0.262500X0.450000X-0.262500X-0.450000X0.262500X-0.450000X0*%
%ADD18RoundRect,0.250000X-0.650000X0.325000X-0.650000X-0.325000X0.650000X-0.325000X0.650000X0.325000X0*%
%ADD19RoundRect,0.150000X0.587500X0.150000X-0.587500X0.150000X-0.587500X-0.150000X0.587500X-0.150000X0*%
%ADD20RoundRect,0.150000X-0.150000X0.587500X-0.150000X-0.587500X0.150000X-0.587500X0.150000X0.587500X0*%
%ADD21RoundRect,0.250000X-0.475000X0.250000X-0.475000X-0.250000X0.475000X-0.250000X0.475000X0.250000X0*%
%ADD22RoundRect,0.042000X0.258000X-0.943000X0.258000X0.943000X-0.258000X0.943000X-0.258000X-0.943000X0*%
%ADD23RoundRect,0.250000X0.250000X0.475000X-0.250000X0.475000X-0.250000X-0.475000X0.250000X-0.475000X0*%
%ADD24R,2.500000X1.800000*%
%ADD25RoundRect,0.250000X-0.450000X0.262500X-0.450000X-0.262500X0.450000X-0.262500X0.450000X0.262500X0*%
%ADD26RoundRect,0.150000X0.150000X-0.512500X0.150000X0.512500X-0.150000X0.512500X-0.150000X-0.512500X0*%
%ADD27RoundRect,0.243750X-0.456250X0.243750X-0.456250X-0.243750X0.456250X-0.243750X0.456250X0.243750X0*%
%ADD28RoundRect,0.250000X0.325000X0.650000X-0.325000X0.650000X-0.325000X-0.650000X0.325000X-0.650000X0*%
%ADD29RoundRect,0.150000X-0.150000X0.512500X-0.150000X-0.512500X0.150000X-0.512500X0.150000X0.512500X0*%
%ADD30R,2.050000X3.000000*%
G04 APERTURE END LIST*
G36*
X62796000Y-76845000D02*
G01*
X61156000Y-76845000D01*
X61156000Y-75555000D01*
X62796000Y-75555000D01*
X62796000Y-76845000D01*
G37*
D10*
X62796000Y-76845000D02*
X61156000Y-76845000D01*
X61156000Y-75555000D01*
X62796000Y-75555000D01*
X62796000Y-76845000D01*
D11*
X56100000Y-89510000D03*
D12*
X56100000Y-91530000D03*
D13*
X56100000Y-92760000D03*
D11*
X56100000Y-90510000D03*
D12*
X56100000Y-88490000D03*
D13*
X56100000Y-87260000D03*
D14*
X62484000Y-85786000D03*
X62484000Y-83886000D03*
D15*
X140057500Y-60960000D03*
X141882500Y-60960000D03*
D16*
X91429000Y-69276000D03*
X91429000Y-68326000D03*
X91429000Y-67376000D03*
X89154000Y-67376000D03*
X89154000Y-68326000D03*
X89154000Y-69276000D03*
D17*
X80668500Y-71882000D03*
X78843500Y-71882000D03*
D18*
X94742000Y-56183000D03*
X94742000Y-59133000D03*
D19*
X73733900Y-68412400D03*
X73733900Y-66512400D03*
X71858900Y-67462400D03*
D15*
X69953500Y-77724000D03*
X71778500Y-77724000D03*
D20*
X141920000Y-65102500D03*
X140020000Y-65102500D03*
X140970000Y-66977500D03*
D21*
X75438000Y-71694000D03*
X75438000Y-73594000D03*
D22*
X60071000Y-78675000D03*
X61341000Y-78675000D03*
X62611000Y-78675000D03*
X63881000Y-78675000D03*
X63881000Y-73725000D03*
X62611000Y-73725000D03*
X61341000Y-73725000D03*
X60071000Y-73725000D03*
D15*
X69953500Y-74676000D03*
X71778500Y-74676000D03*
D23*
X82484000Y-68580000D03*
X80584000Y-68580000D03*
D15*
X140415000Y-70485000D03*
X142240000Y-70485000D03*
X93829500Y-53086000D03*
X95654500Y-53086000D03*
D24*
X75660000Y-55880000D03*
X71660000Y-55880000D03*
D25*
X52832000Y-72366500D03*
X52832000Y-74191500D03*
D26*
X80584000Y-64891500D03*
X81534000Y-64891500D03*
X82484000Y-64891500D03*
X82484000Y-62616500D03*
X81534000Y-62616500D03*
X80584000Y-62616500D03*
D25*
X55880000Y-72366500D03*
X55880000Y-74191500D03*
X128016000Y-85955500D03*
X128016000Y-87780500D03*
D27*
X55880000Y-76786500D03*
X55880000Y-78661500D03*
D24*
X74644000Y-61620400D03*
X70644000Y-61620400D03*
D28*
X55577000Y-67564000D03*
X52627000Y-67564000D03*
D17*
X136525000Y-64770000D03*
X134700000Y-64770000D03*
D29*
X55560000Y-61600500D03*
X54610000Y-61600500D03*
X53660000Y-61600500D03*
X53660000Y-63875500D03*
X54610000Y-63875500D03*
X55560000Y-63875500D03*
D17*
X62888500Y-67310000D03*
X61063500Y-67310000D03*
D27*
X52832000Y-76786500D03*
X52832000Y-78661500D03*
D25*
X133985000Y-54332500D03*
X133985000Y-56157500D03*
D20*
X136840000Y-68277500D03*
X134940000Y-68277500D03*
X135890000Y-70152500D03*
D25*
X117475000Y-54332500D03*
X117475000Y-56157500D03*
D15*
X52427500Y-81788000D03*
X54252500Y-81788000D03*
D25*
X92837000Y-85828500D03*
X92837000Y-87653500D03*
D30*
X60115000Y-55880000D03*
X65615000Y-55880000D03*
D15*
X140415000Y-74295000D03*
X142240000Y-74295000D03*
D17*
X96774000Y-67564000D03*
X94949000Y-67564000D03*
D25*
X125730000Y-54332500D03*
X125730000Y-56157500D03*
M02*
